<?xml version="1.0" encoding="UTF-8" standalone="no"?>
<svg
   xmlns:dc="http://purl.org/dc/elements/1.1/"
   xmlns:cc="http://creativecommons.org/ns#"
   xmlns:rdf="http://www.w3.org/1999/02/22-rdf-syntax-ns#"
   xmlns:svg="http://www.w3.org/2000/svg"
   xmlns="http://www.w3.org/2000/svg"
   xmlns:sodipodi="http://sodipodi.sourceforge.net/DTD/sodipodi-0.dtd"
   xmlns:inkscape="http://www.inkscape.org/namespaces/inkscape"
   sodipodi:docname="ynh_logo.svg"
   inkscape:version="1.0 (4035a4fb49, 2020-05-01)"
   id="svg8"
   version="1.1"
   viewBox="0 0 129.73129 112.61991"
   height="112.61991mm"
   width="129.73129mm">
  <defs
     id="defs2" />
  <sodipodi:namedview
     fit-margin-bottom="0"
     fit-margin-right="0"
     fit-margin-left="0"
     fit-margin-top="0"
     inkscape:window-maximized="1"
     inkscape:window-y="-9"
     inkscape:window-x="-9"
     inkscape:window-height="1001"
     inkscape:window-width="1920"
     showgrid="false"
     inkscape:document-rotation="0"
     inkscape:current-layer="g38"
     inkscape:document-units="mm"
     inkscape:cy="7.4471664"
     inkscape:cx="388.02693"
     inkscape:zoom="1.4"
     inkscape:pageshadow="2"
     inkscape:pageopacity="0.0"
     borderopacity="1.0"
     bordercolor="#666666"
     pagecolor="#ffffff"
     id="base" />
  <metadata
     id="metadata5">
    <rdf:RDF>
      <cc:Work
         rdf:about="">
        <dc:format>image/svg+xml</dc:format>
        <dc:type
           rdf:resource="http://purl.org/dc/dcmitype/StillImage" />
        <dc:title></dc:title>
      </cc:Work>
    </rdf:RDF>
  </metadata>
  <g
     transform="translate(-36.757919,-125.25782)"
     id="layer1"
     inkscape:groupmode="layer"
     inkscape:label="Layer 1">
    <g
       transform="translate(18.120844,12.85119)"
       id="layer1-0"
       inkscape:label="Calque 1">
      <g
         transform="translate(-0.09167385,0.82180684)"
         id="g38">
        <path
           id="path40"
           d="m 40.653683,108.67443 -0.392919,-0.022 -0.71553,-0.16928 -0.71553,-0.16928 -1.43519,-0.71857 -1.43519,-0.71858 -1.290432,-1.29524 -1.290432,-1.29524 -1.490544,-2.52363 -1.490544,-2.523634 -1.197856,-1.18021 -1.197855,-1.1802 -1.536167,-1.07027 -1.536167,-1.07027 -0.749923,-0.92468 -0.749923,-0.92468 -0.460098,-0.91337 -0.460097,-0.91337 -0.117351,-0.91474 -0.11735,-0.91475 0.497746,-0.966 0.497747,-0.966 1.147924,-0.56769 1.147925,-0.56769 2.185691,-0.5784 2.185691,-0.5784 0.775361,-0.19983 0.775362,-0.19983 0.127513,-7.79646 0.127513,-7.79646 0.333021,-1.50176 0.333021,-1.50175 0.561707,-1.14809 0.561708,-1.14809 0.529179,-0.24111 0.52918,-0.24111 1.524436,0.26141 1.524436,0.26142 1.32635,0.633 1.326352,0.63301 1.092706,1.15538 1.092707,1.15538 0.678338,1.34378 0.678338,1.34378 0.17155,1.54056 0.17155,1.54056 -0.105383,4.32913 -0.105383,4.32914 0.146107,0.77882 0.146109,0.77882 0.366629,-0.005 0.366631,-0.005 0.895015,-0.40638 0.895018,-0.40638 0.900565,-0.90057 0.900566,-0.90056 0.651832,-1.39293 0.651831,-1.39294 0.227596,-1.57981 0.227595,-1.57982 -0.224423,-4.37223 -0.224423,-4.37223 0.174081,-1.43813 0.174082,-1.43813 0.633623,-1.250272 0.633621,-1.250269 0.569255,-0.530813 0.569255,-0.530812 1.926728,0.04426 1.926729,0.04426 1.558175,0.323819 1.558173,0.323821 0.858462,0.601821 0.858464,0.601821 0.461802,0.823274 0.461803,0.82327 0.264379,1.24582 0.26438,1.24581 -0.243374,1.39756 -0.243373,1.39755 -0.87488,3.08411 -0.874879,3.08411 -0.305088,1.57819 -0.305088,1.5782 v 1.67789 1.6779 l 0.321438,1.69057 0.32144,1.69056 0.837658,2.90347 0.83766,2.90348 0.381093,2.15072 0.381092,2.15072 0.01908,3.011 0.01908,3.011014 -0.276406,0.48391 -0.276409,0.48392 H 61.78223 61.058885 l -1.258502,-0.66094 -1.258505,-0.66095 -1.569831,-1.180234 -1.56983,-1.18024 -2.19393,-2.09201 -2.193928,-2.09201 -0.723472,-0.59004 -0.723474,-0.59005 -0.459421,0.14412 -0.459424,0.14411 -1.56901,1.03228 -1.569013,1.03227 -1.226923,0.241 -1.226925,0.241 -0.273718,0.09 -0.273718,0.09 -0.136172,0.35486 -0.136171,0.35486 0.277743,4.327834 0.277743,4.32784 -0.267807,1.27679 -0.267807,1.27678 -0.605095,0.6051 -0.605086,0.60511 z m 65.549697,-10.827144 -1.63609,0.12445 -0.90396,-0.46207 -0.90395,-0.46206 -1.17312,-1.43426 -1.17313,-1.43426 -0.863234,-1.61304 -0.86323,-1.61304 -0.49693,-1.61304 -0.49693,-1.61304 -0.004,-2.25826 -0.004,-2.25825 0.43014,-0.86029 0.43015,-0.86029 0.72917,-0.0696 0.729184,-0.0697 0.9914,1.12163 0.9914,1.12162 0.99087,1.04497 0.99086,1.04498 h 0.59678 0.59677 l 0.71855,-0.76189 0.71854,-0.76188 0.23005,-0.85434 0.23006,-0.85435 -0.1416,-0.75476 -0.14159,-0.75476 -0.85563,-1.32382 -0.85562,-1.32383 -4.66337,-4.74676 -4.663374,-4.74676 -0.41244,-0.86029 -0.41243,-0.86029 -0.0869,-1.29043 -0.0869,-1.29044 0.23556,-1.29043 0.23556,-1.290432 0.68449,-1.356698 0.6845,-1.356697 1.27034,-1.176117 1.27035,-1.176119 1.052804,-0.533495 1.05281,-0.533497 1.34832,-0.317893 1.34832,-0.317894 1.5366,-0.0032 1.53662,-0.0032 1.38237,0.42697 1.38237,0.426969 1.27812,0.826092 1.27812,0.826089 0.60016,0.713247 0.60015,0.713248 0.55954,1.098469 0.55954,1.098468 0.02,1.279983 0.02,1.279987 -0.53767,0.27611 -0.53768,0.27612 -1.72059,0.008 -1.72058,0.008 -0.89254,0.40528 -0.89253,0.40527 -0.14381,0.65476 -0.14382,0.65475 0.45644,1.0322 0.45643,1.0322 0.56639,0.59145 0.56638,0.59145 h 0.47834 0.47832 l 0.50302,-0.61538 0.50303,-0.61539 0.58059,-0.98843 0.58058,-0.98844 0.9112,-0.66007 0.91121,-0.66007 1.08908,-0.30273 1.08907,-0.30273 1.75084,-0.14208 1.75083,-0.14209 0.63348,-0.38524 0.63347,-0.38525 0.47605,-1.012735 0.47604,-1.012735 0.97874,-4.227356 0.97875,-4.227356 0.43719,-1.026555 0.43719,-1.026556 0.66227,-0.557265 0.66227,-0.557264 1.004,0.118909 1.004,0.118909 1.04728,0.487579 1.04728,0.487579 1.1924,1.192404 1.19241,1.192404 0.46924,1.008262 0.46923,1.00826 0.28199,1.68014 0.28198,1.680138 0.95985,-0.0271 0.95984,-0.0271 3.54869,-0.15888 3.54869,-0.158882 1.4848,0.351862 1.4848,0.351864 1.06769,0.581109 1.06769,0.58111 1.15094,1.271832 1.15094,1.271833 0.34986,0.91608 0.34985,0.91609 -0.36739,0.77424 -0.3674,0.77423 -1.28356,1.18835 -1.28355,1.18834 -2.18726,1.05623 -2.18727,1.05623 -1.97337,0.65028 -1.97337,0.65027 -3.07743,0.88916 -3.07744,0.88916 -0.41096,0.21994 -0.41096,0.21994 0.13497,2.18022 0.13497,2.18023 0.43203,3.87129 0.43203,3.8713 -0.003,1.93565 -0.003,1.93565 -0.51599,1.25495 -0.516,1.25495 -0.57254,0.82617 -0.57253,0.82617 -0.75038,0.35607 -0.75037,0.35608 -1.07135,-0.25701 -1.07134,-0.25702 -1.26824,-0.84689 -1.26824,-0.8469 -0.76507,-1.04224 -0.76507,-1.04223 -0.50759,-1.15134 -0.5076,-1.15134 -0.36911,-1.61304 -0.36912,-1.61304 -0.12173,-3.82893 -0.12174,-3.82892 -1.20403,0.12832 -1.20403,0.12833 -0.96783,0.11088 -0.96782,0.11087 v 5.52538 5.52537 l -0.63754,1.18289 -0.63755,1.1829 -1.83578,1.83387 -1.83578,1.83387 -1.72058,0.88732 -1.72058,0.88733 -1.15984,0.34111 -1.15984,0.34111 -1.6361,0.12445 z m -25.724158,-0.70357 -1.07536,0.11881 -1.505504,-0.30661 -1.505503,-0.3066 -2.365792,-1.17691 -2.365792,-1.17692 -2.262415,-1.70003 -2.262415,-1.70004 -1.418079,-1.50324 -1.418077,-1.50324 -0.380828,-1.04883 -0.38083,-1.04883 -0.103502,-3.59678 -0.103501,-3.59678 0.36659,-2.21016 0.36659,-2.21016 0.72852,-2.25826 0.72852,-2.25826 0.811045,-1.36754 0.811045,-1.36754 1.52822,-1.45166 1.528221,-1.45166 1.268127,-0.62195 1.268129,-0.621954 2.6884,6.45e-4 2.688399,6.45e-4 2.043184,0.709864 2.043182,0.70987 2.24397,1.0694 2.24397,1.06939 1.41225,0.88637 1.41226,0.88637 0.9967,0.82774 0.9967,0.82774 0.35523,0.74858 0.35523,0.74859 0.22687,3.06975 0.22687,3.06976 -0.13973,2.6884 -0.13972,2.6884 -0.39711,2.04318 -0.39711,2.04318 -0.55808,1.47742 -0.55808,1.47742 -0.73979,1.21098 -0.73979,1.21098 -1.2496,1.21581 -1.2496,1.2158 -1.09225,0.66183 -1.09226,0.66184 -1.38107,0.51309 -1.381074,0.5131 -1.07536,0.11881 z m -4.324644,-12.53533 h 0.913897 l 1.166363,-0.59145 1.166361,-0.59145 0.587439,-0.86029 0.587439,-0.86029 0.335584,-1.29043 0.335583,-1.29043 -0.131138,-0.99095 -0.131138,-0.99094 -0.403909,-0.66418 -0.40391,-0.66417 -0.55227,-0.36187 -0.552271,-0.36186 -0.992279,0.37896 -0.99228,0.37895 -0.819005,0.81901 -0.819007,0.819 -0.442646,1.43313 -0.442648,1.43313 v 1.79009 1.7901 l 0.33797,0.33797 0.337971,0.33797 z M 42.76296,51.702365 h -0.60643 l -0.898379,-0.483912 -0.898378,-0.483912 -0.988433,-0.965224 -0.988432,-0.965223 -0.591412,-0.862888 -0.591412,-0.862889 -0.597604,-1.182895 -0.597603,-1.182896 -0.504109,-1.481825 -0.504109,-1.481822 -0.325188,-1.714246 -0.325187,-1.714249 0.0055,-2.073193 0.0055,-2.073192 0.4191,-1.828112 0.419101,-1.828112 0.0055,-0.953689 0.0055,-0.953688 -0.437675,-0.904117 -0.437675,-0.904115 -1.128731,-1.045667 -1.12873,-1.045668 -2.283983,-1.876434 -2.283984,-1.876436 -0.430994,-0.704428 -0.430994,-0.704429 -0.438147,-2.043184 -0.438148,-2.043184 -0.537496,-3.226079 -0.537497,-3.2260803 -0.360988,-2.892703 -0.360989,-2.892702 0.130246,-1.24612 0.130245,-1.24612104 0.336943,-0.807833 0.336943,-0.807832 0.680533,-0.70313996 0.680533,-0.703139 0.848316,-0.228428 0.848316,-0.228427 0.760396,0.142651 0.760397,0.142651 1.04339,0.528726 1.043389,0.528725 1.293598,1.31383896 1.293598,1.31383804 0.604412,1.204608 0.604412,1.204607 0.339013,1.182896 0.339012,1.182896 0.850741,3.656224 0.850742,3.6562233 0.454061,1.203535 0.454062,1.203535 0.480854,0.214225 0.480855,0.214225 0.616473,-0.169188 0.616474,-0.169189 0.79298,-0.549536 0.79298,-0.549536 0.909859,-1.236715 0.909861,-1.236715 0.966241,-1.352556 0.966241,-1.3525563 1.004222,-0.63686 1.004225,-0.63686 0.334269,0.002 0.334269,0.002 1.07536,0.623937 1.07536,0.623938 1.266978,1.1388413 1.266976,1.138841 0.395107,0.869835 0.395109,0.869835 0.0047,1.299014 0.0047,1.299013 -0.325056,1.247974 -0.325055,1.247975 -0.936028,1.431844 -0.936042,1.431837 -2.825287,3.329333 -2.825284,3.329334 v 4.150534 4.150535 l -0.329609,3.166195 -0.329606,3.166195 -0.438418,2.6884 -0.438418,2.688399 -0.323169,1.290432 -0.323169,1.290432 -0.311731,0.483912 -0.311732,0.483912 z m 26.424984,-4.880415 -1.182896,0.121358 -1.182896,-0.262727 -1.182896,-0.26273 -1.07536,-0.530054 -1.07536,-0.530055 -1.631564,-1.618529 -1.631564,-1.618528 -1.108108,-2.213487 -1.108109,-2.213486 -0.535353,-1.759857 -0.535353,-1.759856 -0.415799,-2.043184 -0.415798,-2.043184 -0.262698,-2.112071 -0.262697,-2.112072 0.118124,-5.63052 0.118124,-5.63052 0.339039,-2.122392 0.339037,-2.122392 0.212113,-0.7877253 0.212113,-0.787725 0.301647,-0.412525 0.301645,-0.412525 0.939417,0.308233 0.939417,0.308233 1.531551,1.02201 1.531549,1.0220113 0.805171,0.891228 0.805172,0.891228 0.557056,1.208706 0.557055,1.208707 0.226237,7.657539 0.226238,7.657541 0.293702,0.353891 0.293705,0.353892 h 0.489065 0.489067 l 0.704331,-0.802188 0.70433,-0.802191 0.696913,-1.509833 0.696913,-1.509836 0.857244,-2.795935 0.857247,-2.795936 0.890196,-4.086368 0.890196,-4.086367 0.574332,-2.5468683 0.574335,-2.546867 0.265775,-0.356605 0.265775,-0.356604 1.22156,0.631608 1.221559,0.631608 1.322293,1.30404 1.322294,1.3040403 0.384667,0.812083 0.384665,0.812084 0.317156,1.521088 0.317158,1.521088 0.0029,3.590945 0.0029,3.590948 -0.345705,3.001368 -0.345706,3.00137 -0.539633,2.778891 -0.539633,2.778894 -0.744323,2.455593 -0.744323,2.455593 -0.615526,1.217673 -0.615523,1.217675 -0.99077,1.344456 -0.990769,1.344456 -1.296114,0.954145 -1.296117,0.954145 -1.123699,0.416008 -1.123702,0.416009 -1.182895,0.121357 z m 22.690092,-1.447383 -0.86029,0.09375 -0.7847,-0.291283 -0.7847,-0.291283 -1.25848,-0.702287 -1.25848,-0.70229 -1.12269,-0.838166 -1.12269,-0.838163 -0.23203,-0.433557 -0.23204,-0.433557 0.42747,-1.9839 0.42747,-1.983897 0.34143,-2.903471 0.34143,-2.903472 0.31229,-9.678239 0.31229,-9.678239 0.23866,-1.9356483 0.23867,-1.935648 0.25651,-0.53768 0.2565,-0.53768 1.42892,0.01624 1.42892,0.01624 1.3869,0.682772 1.38691,0.682772 1.5488,1.630488 1.54881,1.6304893 0.85128,1.3171 0.85128,1.317101 0.12568,0.5473 0.12567,0.5473 0.90673,1.720576 0.90673,1.720576 1.268284,1.935648 1.26829,1.935647 0.056,-0.430144 0.0561,-0.430144 0.543,-6.452159 0.543,-6.4521593 0.33106,-2.580864 0.33106,-2.580864 0.32632,-1.61304 0.32632,-1.61304004 0.75664,-1.82811196 0.75665,-1.828111 0.11331,-0.376376 0.1133,-0.376376 h 0.20602 0.20602 l 1.60276,1.206269 1.60275,1.20627 0.65231,0.94808996 0.6523,0.948089 0.4134,1.20157204 0.4134,1.201572 0.21977,1.752029 0.21977,1.752028 -0.13277,10.8611353 -0.13275,10.861135 0.34703,4.495409 0.34705,4.495408 -0.0121,2.386895 -0.0121,2.386895 -0.2567,0.745304 -0.2567,0.745304 -0.73079,0.49136 -0.73079,0.491359 h -1.5422 -1.5422 l -1.09371,-0.324797 -1.0937,-0.324795 -1.30845,-0.963235 -1.30846,-0.963232 -1.99208,-1.890693 -1.992074,-1.890694 -0.67842,-0.4775 -0.67842,-0.477501 h -0.56141 -0.5614 l -0.42867,0.698984 -0.42866,0.698984 -0.39265,1.07536 -0.39265,1.07536 -0.58863,1.648486 -0.58863,1.648488 -0.68385,0.786378 -0.68384,0.786379 -0.86029,0.09375 z m 38.098174,-6.232902 -1.96609,0.06617 -0.95165,-0.200097 -0.95166,-0.200096 -1.09152,-0.354129 -1.09154,-0.354127 -1.63216,-0.83951 -1.63217,-0.83951 -1.42361,-1.174256 -1.4236,-1.174257 -0.85972,-1.138681 -0.85971,-1.138679 -0.57232,-1.250123 -0.57233,-1.250124 -0.10568,-1.754026 -0.10569,-1.754028 0.35922,-2.570112 0.35922,-2.570114 0.72351,-2.806686 0.72351,-2.806687 0.77938,-2.258256 0.77939,-2.258255 1.26127,-2.5920703 1.26127,-2.59207 0.87642,-1.108763 0.87643,-1.108762 1.6057,-0.772311 1.6057,-0.772311 1.89146,-0.64782304 1.89146,-0.647823 1.52899,-0.123282 1.52898,-0.123282 1.37449,0.721199 1.37448,0.72119904 1.55915,1.541408 1.55916,1.541408 0.68481,1.46341 0.68481,1.463409 0.0928,1.119335 0.0928,1.119335 -0.39084,1.1516493 -0.39083,1.151649 0.0235,1.182895 0.0235,1.182896 0.98298,3.399321 0.98298,3.399318 0.13403,1.332265 0.13403,1.332264 -0.25259,1.379101 -0.2526,1.379102 -0.64951,1.954514 -0.6495,1.954514 -1.10904,2.146788 -1.10904,2.146789 -1.42043,1.452314 -1.42041,1.452312 -1.45263,0.679761 -1.4526,0.679759 z m -2.04537,-14.115065 0.56593,0.0068 0.68873,-0.698984 0.68871,-0.698983 0.93696,-1.935648 0.93696,-1.935648 0.33548,-1.321475 0.33549,-1.321478 v -0.72762 -0.727621 l -0.33481,-0.477999 -0.3348,-0.477999 h -0.96631 -0.96631 l -0.58077,0.304882 -0.58076,0.304881 -0.78427,0.824247 -0.78426,0.824246 -0.55399,1.110249 -0.55398,1.110247 -0.19016,1.212612 -0.19016,1.21261 0.15373,0.840682 0.15373,0.84068 0.3907,0.600221 0.3907,0.600218 0.33877,0.262001 0.33877,0.261999 0.56592,0.0068 z"
           style="fill:#333333;fill-opacity:1;stroke-width:0.215072" />
        <path
           d="m 37.048721,224.1831 c -4.640981,-0.49109 -7.702484,-4.4926 -9.640621,-8.39303 -2.094515,-3.99339 -7.798773,-5.08019 -8.591335,-9.90201 -0.654826,-2.84861 2.483129,-4.23637 4.807232,-4.65444 1.432606,-0.83463 4.820157,-0.11929 4.281578,-2.49241 0.271399,-5.22978 -0.211305,-10.54842 0.565542,-15.71864 0.346484,-2.01069 1.400326,-5.20005 4.039231,-4.01874 4.946693,0.49364 8.482633,5.46733 8.045582,10.29478 0.0842,3.17184 -0.513553,6.39874 0.0982,9.528 4.177007,-0.40095 6.072411,-5.1891 6.065641,-8.91299 0.108064,-4.65 -1.681998,-10.01292 1.43583,-14.0123 1.277026,-1.55085 3.655108,-0.57966 5.414051,-0.59838 2.938927,0.0483 5.403788,2.28734 5.490389,5.27676 -0.103096,5.73325 -3.815956,11.18036 -2.532352,17.0622 1.045031,5.49512 3.438888,10.80554 2.913203,16.51867 0.687142,2.0435 -1.008634,4.01396 -2.900776,2.46677 -4.16982,-1.9813 -7.02744,-5.74566 -10.57766,-8.56655 -2.282872,0.74095 -3.923551,2.90148 -6.510717,2.83478 -1.727648,0.89681 -0.247323,3.59198 -0.542036,5.21755 0.06401,2.70662 1.018631,6.19178 -1.468052,8.09162 l -0.343535,-0.0189 z m 65.549699,-10.82715 c -3.435917,0.69457 -5.385795,-3.0624 -6.815825,-5.58459 -1.660232,-2.87989 -2.202841,-6.49967 -1.39502,-9.66775 0.800456,-2.54001 3.072083,-0.53563 3.913749,0.90837 1.005917,1.10928 2.625736,3.45247 3.973796,1.41853 2.4563,-2.2069 0.30833,-5.5402 -1.53915,-7.36403 -2.902788,-3.17092 -6.305814,-5.99088 -8.900859,-9.37772 -1.75284,-3.85968 0.03251,-8.69273 3.419122,-11.08629 4.872077,-3.59041 13.182017,-2.26906 15.529107,3.69429 0.98732,1.99029 0.0314,4.35485 -2.50839,3.60552 -1.8973,-0.42988 -4.89057,0.94713 -3.33717,3.16026 0.35484,1.70881 2.57767,3.31105 3.48437,1.06695 1.21273,-3.28402 4.8235,-4.25792 8.00889,-4.21066 3.23619,-0.31261 3.1012,-4.47522 3.87234,-6.87683 0.79666,-2.60377 0.69302,-5.97628 3.22516,-7.60008 4.35983,0.0124 7.81316,4.08035 7.87867,8.31238 0.81153,1.45976 3.85856,0.14921 5.57952,0.44912 3.83695,-0.55074 8.22255,0.32154 10.49718,3.74422 1.73706,1.55759 0.97331,3.96569 -0.86027,5.0755 -4.15512,3.59749 -9.88026,4.52272 -14.996,6.15902 -2.55909,0.11869 -1.18221,2.90658 -1.34435,4.55774 0.18581,4.31554 1.62844,8.80803 0.49423,13.03175 -0.60683,2.1808 -2.51607,4.80839 -5.02578,3.50223 -5.17949,-1.99942 -6.52915,-8.22622 -6.34398,-13.23244 -0.0896,-1.99458 0.58091,-4.86213 -2.35213,-3.59121 -3.0103,-0.60287 -1.95876,2.42286 -2.11332,4.36936 -0.27623,3.22355 0.93643,6.92287 -1.5185,9.53103 -2.76382,3.22379 -6.43345,5.86392 -10.82539,6.00533 z m -25.72416,-0.70357 c -3.967418,0.27136 -7.626385,-2.07439 -10.743346,-4.29502 -2.840807,-2.1757 -6.617969,-4.72087 -6.246731,-8.77699 -0.509976,-5.89634 0.353673,-12.12699 3.654789,-17.14591 2.18742,-2.28734 4.831036,-4.8238 8.281098,-4.14669 4.383194,-0.28061 8.360407,2.17165 12.136945,4.10775 2.412445,1.37506 5.257372,3.24392 4.806279,6.43541 0.518805,6.47798 0.490104,13.76036 -3.614413,19.16068 -2.142942,2.42363 -5.028709,4.26908 -8.274621,4.66077 z m -4.324644,-12.53533 c 4.15393,0.0508 6.493335,-5.64768 4.022572,-8.79458 -1.695996,-1.56647 -4.266464,0.60552 -4.93018,2.32965 -0.731744,1.87491 -1.001835,4.19198 -0.438942,6.03227 0.315082,0.5842 0.793733,0.41923 1.34655,0.43266 z M 39.157998,167.21103 c -4.091587,-0.94799 -6.292403,-5.39122 -7.483811,-9.12311 -1.364773,-4.01805 -1.141786,-8.36163 -0.08168,-12.40553 0.35083,-3.98623 -4.04647,-5.79979 -6.471153,-8.21296 -3.148266,-2.1213 -2.613048,-6.44329 -3.496391,-9.72411 -0.407657,-4.057 -1.980375,-8.31873 -0.66204,-12.31156 0.866235,-2.84788 4.436209,-3.26689 6.572626,-1.54589 3.662404,2.286 4.856173,6.62678 5.605387,10.63629 0.730572,2.2662 0.692178,5.25785 2.388705,6.91782 2.987497,0.50557 4.470722,-3.07769 6.085726,-5.04921 0.977184,-1.6514 3.249693,-3.63537 5.016177,-1.82567 2.407812,1.42736 4.744016,3.7447 4.110372,6.79979 -0.707576,5.09512 -5.283797,8.34843 -8.171786,12.28515 0.217556,7.58321 -0.306513,15.22133 -2.182389,22.59112 -0.372375,0.45628 -0.465773,1.22493 -1.229743,0.96787 z m 26.424986,-4.88041 c -3.982678,0.50948 -7.459581,-2.46274 -9.424593,-5.62424 -3.7227,-6.6451 -4.499065,-14.50968 -4.042087,-21.99669 0.07092,-3.62109 0.04248,-7.48694 1.500425,-10.83134 1.593626,-0.89649 3.600712,1.38646 5.142965,2.18083 2.458271,1.94283 3.194333,5.04889 2.936833,8.04997 0.260309,3.90453 -0.05204,8.02535 0.560436,11.79687 1.381923,1.49195 2.837077,-1.22105 3.331237,-2.41088 3.068807,-6.62409 3.546866,-14.13273 5.726386,-20.98509 1.582928,-0.4991 3.519463,1.7217 4.766096,2.93542 2.920956,3.51566 1.77696,8.53276 1.957463,12.76931 -0.794029,6.50298 -1.405301,13.40931 -4.859219,19.11921 -1.646465,2.63546 -4.418944,4.77203 -7.595942,4.99663 z m 22.69009,-1.44739 c -2.739653,0.0645 -5.033577,-2.07124 -7.192029,-3.56977 -1.022462,-2.00605 0.765949,-4.34458 0.59178,-6.54341 1.209385,-9.05759 0.366799,-18.27081 1.58386,-27.32622 0.539877,-1.88252 3.413727,-1.11598 4.75775,-0.36019 2.770863,1.43286 4.853362,4.18285 6.264084,6.91329 0.946249,2.94197 2.869776,5.47936 4.524379,8.07171 0.974286,-7.6875 0.696032,-15.64109 2.907592,-23.10612 0.82253,-1.21885 0.92607,-4.95994 2.8568,-2.62769 4.69154,2.55797 4.83599,8.47405 4.63061,13.17267 -0.0436,8.9828 -0.57263,17.98134 0.47482,26.92876 -0.26146,2.46384 0.9306,6.05598 -1.99916,7.24712 -3.04877,0.41433 -5.99411,-0.61064 -8.138272,-2.81291 -2.040469,-1.44979 -3.500674,-4.51623 -6.214256,-4.49954 -1.931832,2.5484 -1.731959,6.23129 -4.187578,8.41842 -0.286735,0.0314 -0.573828,0.0622 -0.86038,0.0939 z m 38.098176,-6.2329 c -5.54284,0.24585 -11.14964,-2.96426 -14.02665,-7.65997 -2.27519,-4.22163 -0.75207,-9.23951 0.22915,-13.64239 1.35234,-5.19781 3.10119,-10.5335 6.55767,-14.72486 3.22091,-1.52981 6.73883,-3.41017 10.35695,-2.92697 3.722,1.69813 7.18927,5.19914 7.11784,9.53084 -2.69406,5.37999 2.87824,10.67343 1.12278,16.18821 -1.19098,4.5343 -3.01874,9.46445 -7.10981,12.10113 -1.37412,0.72481 -2.6501,1.31808 -4.24793,1.13401 z m -2.04537,-14.11506 c 2.3077,-0.57731 2.8743,-3.66894 3.90195,-5.59575 0.45466,-1.49376 1.50876,-4.88787 -1.04961,-4.72071 -3.36496,0.15687 -5.21597,4.22236 -5.12277,7.24242 0.1083,1.19587 0.82009,3.14269 2.27043,3.07404 z"
           style="fill:#333333;fill-opacity:1;stroke-width:0.215072"
           id="path40-4" />
      </g>
    </g>
  </g>
</svg>
